<svg width="32" height="38" viewBox="0 0 32 38" fill="none" xmlns="http://www.w3.org/2000/svg">
<path d="M26.5206 36.25C24.4789 38.2292 22.2498 37.9167 20.1039 36.9792C17.8331 36.0208 15.7498 35.9792 13.3539 36.9792C10.3539 38.2708 8.77061 37.8958 6.97894 36.25C-3.18773 25.7708 -1.68773 9.8125 9.85394 9.22917C12.6664 9.375 14.6248 10.7708 16.2706 10.8958C18.7289 10.3958 21.0831 8.95833 23.7081 9.14583C26.8539 9.39583 29.2289 10.6458 30.7914 12.8958C24.2914 16.7917 25.8331 25.3542 31.7914 27.75C30.6039 30.875 29.0623 33.9792 26.4998 36.2708L26.5206 36.25ZM16.0623 9.10417C15.7498 4.45833 19.5206 0.625 23.8539 0.25C24.4581 5.625 18.9789 9.625 16.0623 9.10417Z" fill="white"/>
</svg>
