<svg width="160" height="160" viewBox="0 0 160 160" fill="none" xmlns="http://www.w3.org/2000/svg">
<path d="M113.334 22.2666C123.389 28.0723 131.753 36.4034 137.599 46.4353C143.445 56.4671 146.569 67.8517 146.663 79.4622C146.757 91.0726 143.817 102.506 138.134 112.631C132.451 122.756 124.222 131.221 114.262 137.189C104.302 143.156 92.9559 146.419 81.3475 146.654C69.739 146.889 58.2705 144.088 48.0772 138.528C37.8839 132.969 29.3193 124.843 23.2313 114.957C17.1432 105.07 13.7429 93.7647 13.3668 82.1599L13.3335 79.9999L13.3668 77.8399C13.7402 66.3265 17.0905 55.1063 23.0911 45.2732C29.0917 35.4401 37.5379 27.3296 47.6061 21.7325C57.6744 16.1354 69.0211 13.2426 80.5402 13.3362C92.0593 13.4298 103.358 16.5066 113.334 22.2666ZM101.333 95.2399C100.071 94.0024 98.3686 93.317 96.6008 93.3345C94.8331 93.3521 93.1446 94.071 91.9068 95.3333C90.355 96.9176 88.5025 98.1764 86.458 99.0357C84.4134 99.895 82.2179 100.338 80.0002 100.338C77.7824 100.338 75.5869 99.895 73.5424 99.0357C71.4978 98.1764 69.6454 96.9176 68.0935 95.3333C66.8495 94.1001 65.1702 93.4061 63.4186 93.4013C61.6669 93.3964 59.9838 94.0812 58.733 95.3074C57.4822 96.5337 56.7643 98.2029 56.7345 99.9543C56.7046 101.706 57.3652 103.398 58.5735 104.667C61.3667 107.517 64.7005 109.781 68.3797 111.327C72.0588 112.873 76.0094 113.669 80.0002 113.669C83.9909 113.669 87.9415 112.873 91.6207 111.327C95.2999 109.781 98.6337 107.517 101.427 104.667C102.664 103.404 103.35 101.702 103.332 99.9339C103.315 98.1661 102.596 96.4777 101.333 95.2399ZM60.0668 59.9999L59.2202 60.0466C57.5329 60.2473 55.9859 61.0847 54.8953 62.3877C53.8047 63.6907 53.2528 65.361 53.3523 67.0573C53.4519 68.7536 54.1955 70.3478 55.431 71.5143C56.6666 72.6807 58.301 73.3314 60.0002 73.3333L60.8468 73.2866C62.5341 73.0859 64.0811 72.2485 65.1717 70.9455C66.2623 69.6425 66.8142 67.9722 66.7146 66.2759C66.6151 64.5796 65.8715 62.9854 64.636 61.8189C63.4004 60.6525 61.766 60.0018 60.0668 59.9999ZM100.067 59.9999L99.2202 60.0466C97.5329 60.2473 95.9859 61.0847 94.8953 62.3877C93.8047 63.6907 93.2528 65.361 93.3523 67.0573C93.4519 68.7536 94.1955 70.3478 95.431 71.5143C96.6666 72.6807 98.301 73.3314 100 73.3333L100.847 73.2866C102.534 73.0859 104.081 72.2485 105.172 70.9455C106.262 69.6425 106.814 67.9722 106.715 66.2759C106.615 64.5796 105.872 62.9854 104.636 61.8189C103.4 60.6525 101.766 60.0018 100.067 59.9999Z" fill="white"/>
</svg>
