<svg width="123" height="121" viewBox="0 0 123 121" fill="none" xmlns="http://www.w3.org/2000/svg">
<path fill-rule="evenodd" clip-rule="evenodd" d="M121.857 67.8615C124.091 83.9876 120.069 102.348 107.378 112.56C95.2779 122.297 78.1621 114.855 62.6393 115.512C45.775 116.227 27.2898 126.837 13.9388 116.518C0.126494 105.843 1.28064 85.3058 0.984977 67.8615C0.682092 49.9911 0.113868 30.6495 12.261 17.5287C24.7183 4.07274 44.6363 -2.26275 62.6393 1.26476C78.6688 4.40558 85.6485 21.8331 96.4974 34.0339C106.233 44.9828 119.847 53.3544 121.857 67.8615Z" fill="#173373" fill-opacity="0.65"/>
<path d="M44.6667 35.1689C44.6667 34.0638 44.2277 33.004 43.4463 32.2226C42.6649 31.4412 41.6051 31.0022 40.5 31.0022H32.1667C31.0616 31.0022 30.0018 31.4412 29.2204 32.2226C28.439 33.004 28 34.0638 28 35.1689V93.5022C28 94.6073 28.439 95.6671 29.2204 96.4485C30.0018 97.2299 31.0616 97.6689 32.1667 97.6689H40.5C41.6051 97.6689 42.6649 97.2299 43.4463 96.4485C44.2277 95.6671 44.6667 94.6073 44.6667 93.5022M44.6667 35.1689V93.5022M44.6667 35.1689C44.6667 34.0638 45.1057 33.004 45.8871 32.2226C46.6685 31.4412 47.7283 31.0022 48.8333 31.0022H57.1667C58.2717 31.0022 59.3315 31.4412 60.1129 32.2226C60.8943 33.004 61.3333 34.0638 61.3333 35.1689V93.5022C61.3333 94.6073 60.8943 95.6671 60.1129 96.4485C59.3315 97.2299 58.2717 97.6689 57.1667 97.6689H48.8333C47.7283 97.6689 46.6685 97.2299 45.8871 96.4485C45.1057 95.6671 44.6667 94.6073 44.6667 93.5022M28 47.6689H44.6667M44.6667 81.0022H61.3333" stroke="white" stroke-width="5" stroke-linecap="round" stroke-linejoin="round"/>
<path d="M65.4997 51.8355L82.1663 47.6689M73.833 81.0022L90.1788 76.9189M64.6788 33.3355L73.7788 31.1272C76.1205 30.5647 78.4997 31.9189 79.1205 34.1772L94.5163 90.0855C94.7879 91.1091 94.6677 92.1972 94.179 93.1367C93.6904 94.0762 92.8686 94.7994 91.8747 95.1647L91.3205 95.3355L82.2205 97.5439C79.8788 98.1064 77.4997 96.7522 76.8788 94.4939L61.483 38.5855C61.2114 37.562 61.3317 36.4739 61.8203 35.5344C62.3089 34.5949 63.1307 33.8717 64.1247 33.5064L64.6788 33.3355Z" stroke="white" stroke-width="5" stroke-linecap="round" stroke-linejoin="round"/>
</svg>
