<svg width="136" height="121" viewBox="0 0 136 121" fill="none" xmlns="http://www.w3.org/2000/svg">
<path fill-rule="evenodd" clip-rule="evenodd" d="M128.85 68.3537C127.046 81.2125 128.211 94.8893 119.663 104.686C110.608 115.064 97.0085 120.529 83.211 120.66C69.285 120.792 57.8 112.849 46.0574 105.386C28.9739 94.5288 4.1434 88.2898 0.9104 68.3537C-2.4073 47.8954 15.7297 30.2744 31.7306 17.0412C46.1724 5.0974 64.4548 -0.307657 83.211 0.28849C101.315 0.86391 121.445 5.20206 131.51 20.2126C140.824 34.1032 131.17 51.8074 128.85 68.3537Z" fill="#173373" fill-opacity="0.65"/>
<path d="M59.7975 45.1042C59.7975 44.4995 59.9166 43.9008 60.148 43.3422C60.3794 42.7836 60.7185 42.2761 61.1461 41.8485C61.5736 41.421 62.0811 41.0819 62.6398 40.8505C63.1984 40.6191 63.7971 40.5 64.4017 40.5H71.86C72.4647 40.5 73.0634 40.6191 73.622 40.8505C74.1806 41.0819 74.6881 41.421 75.1157 41.8485C75.5432 42.2761 75.8823 42.7836 76.1137 43.3422C76.3451 43.9008 76.4642 44.4995 76.4642 45.1042V85.8958C76.4642 87.1169 75.9791 88.288 75.1157 89.1515C74.2522 90.0149 73.0811 90.5 71.86 90.5H64.4017C63.1806 90.5 62.0095 90.0149 61.1461 89.1515C60.2826 88.288 59.7975 87.1169 59.7975 85.8958V45.1042ZM88.9642 20.1042C88.9642 19.4995 89.0833 18.9008 89.3147 18.3422C89.546 17.7836 89.8852 17.2761 90.3127 16.8485C91.1762 15.9851 92.3473 15.5 93.5684 15.5H101.027C101.631 15.5 102.23 15.6191 102.789 15.8505C103.347 16.0819 103.855 16.421 104.282 16.8485C104.71 17.2761 105.049 17.7836 105.28 18.3422C105.512 18.9008 105.631 19.4995 105.631 20.1042V85.8958C105.631 87.1169 105.146 88.288 104.282 89.1515C103.419 90.0149 102.248 90.5 101.027 90.5H93.5684C92.3473 90.5 91.1762 90.0149 90.3127 89.1515C89.4493 88.288 88.9642 87.1169 88.9642 85.8958V20.1042ZM30.6309 82.1667C30.6309 84.3768 31.5088 86.4964 33.0716 88.0592C34.6344 89.622 36.7541 90.5 38.9642 90.5C41.1743 90.5 43.2939 89.622 44.8567 88.0592C46.4196 86.4964 47.2975 84.3768 47.2975 82.1667C47.2975 79.9565 46.4196 77.8369 44.8567 76.2741C43.2939 74.7113 41.1743 73.8333 38.9642 73.8333C36.7541 73.8333 34.6344 74.7113 33.0716 76.2741C31.5088 77.8369 30.6309 79.9565 30.6309 82.1667Z" stroke="white" stroke-width="5" stroke-linecap="round" stroke-linejoin="round"/>
</svg>
