<svg width="120" height="108" viewBox="0 0 120 108" fill="none" xmlns="http://www.w3.org/2000/svg">
<path fill-rule="evenodd" clip-rule="evenodd" d="M116.011 62.707C115.219 77.1305 122.163 95.1715 110.277 104.023C98.4096 112.861 82.27 99.0178 67.252 99.0194C52.2303 99.0209 37.3103 111.104 24.2175 104.032C9.3064 95.9783 -0.517609 79.1272 0.0210953 62.707C0.550293 46.5764 14.6979 35.0582 26.8462 23.9063C38.6005 13.1161 51.0479 2.29753 67.252 0.99025C84.7136 -0.418497 104.478 3.38301 115.07 16.7888C125.087 29.4677 116.884 46.8144 116.011 62.707Z" fill="#173373" fill-opacity="0.65"/>
<path d="M84.1188 48.8054C96.7771 48.8054 107.035 57.2013 107.035 67.5554C107.035 73.3763 103.794 78.5763 98.7021 82.0138V90.4721L90.5188 85.5638C88.4212 86.0572 86.2736 86.306 84.1188 86.3054C71.4605 86.3054 61.2021 77.9096 61.2021 67.5554C61.2021 57.2013 71.4605 48.8054 84.1188 48.8054Z" stroke="white" stroke-width="5" stroke-linecap="round" stroke-linejoin="round"/>
<path d="M62.023 72.5471C59.148 73.3637 56.0647 73.8054 52.8688 73.8054C49.1662 73.814 45.4881 73.2057 41.9855 72.0054L32.0355 77.9721V66.3012C26.8813 61.7929 23.7021 55.6179 23.7021 48.8054C23.7021 34.9971 36.7605 23.8054 52.8688 23.8054C68.6272 23.8054 81.4647 34.5138 82.0355 47.9096V48.8804M57.0355 40.4721H57.0772M44.5355 40.4721H44.5772M77.8688 65.4721H77.9105M90.3688 65.4721H90.4105" stroke="white" stroke-width="5" stroke-linecap="round" stroke-linejoin="round"/>
</svg>
