<svg width="120" height="111" viewBox="0 0 120 111" fill="none" xmlns="http://www.w3.org/2000/svg">
<path fill-rule="evenodd" clip-rule="evenodd" d="M53.2108 0.790502C65.9553 1.75642 77.3649 6.24561 87.7864 13.6609C101.139 23.1617 120.102 31.9018 120 48.3132C119.897 64.7184 99.3872 71.4097 87.3572 82.5353C76.1944 92.8589 68.1968 107.598 53.2108 110.081C36.2289 112.894 16.3276 109.531 5.54181 96.0878C-4.81723 83.1762 2.26113 64.8221 3.65464 48.3132C4.86098 34.0215 2.6379 17.9069 12.978 7.99114C23.2105 -1.82147 39.089 -0.279798 53.2108 0.790502Z" fill="#173373" fill-opacity="0.65"/>
<path d="M15.5 52C15.5 56.9246 16.47 61.8009 18.3545 66.3506C20.2391 70.9003 23.0013 75.0343 26.4835 78.5165C29.9657 81.9987 34.0997 84.7609 38.6494 86.6455C43.1991 88.53 48.0754 89.5 53 89.5C57.9246 89.5 62.8009 88.53 67.3506 86.6455C71.9003 84.7609 76.0343 81.9987 79.5165 78.5165C82.9987 75.0343 85.7609 70.9003 87.6455 66.3506C89.53 61.8009 90.5 56.9246 90.5 52C90.5 47.0754 89.53 42.1991 87.6455 37.6494C85.7609 33.0997 82.9987 28.9657 79.5165 25.4835C76.0343 22.0013 71.9003 19.2391 67.3506 17.3545C62.8009 15.47 57.9246 14.5 53 14.5C48.0754 14.5 43.1991 15.47 38.6494 17.3545C34.0997 19.2391 29.9657 22.0013 26.4835 25.4835C23.0013 28.9657 20.2391 33.0997 18.3545 37.6494C16.47 42.1991 15.5 47.0754 15.5 52Z" stroke="white" stroke-width="5" stroke-linecap="round" stroke-linejoin="round"/>
<path d="M36.333 56.1666H69.6663C69.6663 60.5869 67.9104 64.8261 64.7848 67.9517C61.6592 71.0773 57.4199 72.8333 52.9997 72.8333C48.5794 72.8333 44.3402 71.0773 41.2146 67.9517C38.089 64.8261 36.333 60.5869 36.333 56.1666Z" stroke="white" stroke-width="5" stroke-linecap="round" stroke-linejoin="round"/>
</svg>
