<svg width="160" height="160" viewBox="0 0 160 160" fill="none" xmlns="http://www.w3.org/2000/svg">
<path d="M113.334 22.2666C123.389 28.0723 131.753 36.4034 137.599 46.4353C143.445 56.4671 146.569 67.8517 146.663 79.4622C146.757 91.0726 143.817 102.506 138.134 112.631C132.451 122.756 124.222 131.221 114.262 137.189C104.302 143.156 92.9559 146.419 81.3475 146.654C69.739 146.889 58.2705 144.088 48.0772 138.528C37.8839 132.969 29.3193 124.843 23.2313 114.957C17.1432 105.07 13.7429 93.7647 13.3668 82.1599L13.3335 79.9999L13.3668 77.8399C13.7402 66.3265 17.0905 55.1063 23.0911 45.2732C29.0917 35.4401 37.5379 27.3296 47.6061 21.7325C57.6744 16.1354 69.0211 13.2426 80.5402 13.3362C92.0593 13.4298 103.358 16.5066 113.334 22.2666ZM100 93.3333H60.0002L59.2202 93.3799C57.5998 93.5727 56.1065 94.353 55.0229 95.573C53.9394 96.7931 53.3409 98.3682 53.3409 99.9999C53.3409 101.632 53.9394 103.207 55.0229 104.427C56.1065 105.647 57.5998 106.427 59.2202 106.62L60.0002 106.667H100L100.78 106.62C102.4 106.427 103.894 105.647 104.977 104.427C106.061 103.207 106.659 101.632 106.659 99.9999C106.659 98.3682 106.061 96.7931 104.977 95.573C103.894 94.353 102.4 93.5727 100.78 93.3799L100 93.3333ZM60.0668 59.9999L59.2202 60.0466C57.5998 60.2393 56.1065 61.0196 55.0229 62.2397C53.9394 63.4598 53.3409 65.0348 53.3409 66.6666C53.3409 68.2983 53.9394 69.8734 55.0229 71.0935C56.1065 72.3136 57.5998 73.0939 59.2202 73.2866L60.0002 73.3333L60.8468 73.2866C62.4672 73.0939 63.9605 72.3136 65.0441 71.0935C66.1276 69.8734 66.7261 68.2983 66.7261 66.6666C66.7261 65.0348 66.1276 63.4598 65.0441 62.2397C63.9605 61.0196 62.4672 60.2393 60.8468 60.0466L60.0668 59.9999ZM100.067 59.9999L99.2202 60.0466C97.5998 60.2393 96.1065 61.0196 95.0229 62.2397C93.9394 63.4598 93.3409 65.0348 93.3409 66.6666C93.3409 68.2983 93.9394 69.8734 95.0229 71.0935C96.1065 72.3136 97.5998 73.0939 99.2202 73.2866L100 73.3333L100.847 73.2866C102.467 73.0939 103.961 72.3136 105.044 71.0935C106.128 69.8734 106.726 68.2983 106.726 66.6666C106.726 65.0348 106.128 63.4598 105.044 62.2397C103.961 61.0196 102.467 60.2393 100.847 60.0466L100.067 59.9999Z" fill="white"/>
</svg>
