<svg width="160" height="160" viewBox="0 0 160 160" fill="none" xmlns="http://www.w3.org/2000/svg">
<path d="M113.333 22.2666C123.389 28.0723 131.753 36.4034 137.599 46.4353C143.445 56.4671 146.569 67.8517 146.663 79.4622C146.757 91.0727 143.817 102.506 138.134 112.631C132.451 122.756 124.222 131.221 114.262 137.189C104.302 143.156 92.9559 146.419 81.3475 146.654C69.739 146.889 58.2705 144.088 48.0772 138.528C37.8839 132.969 29.3193 124.843 23.2313 114.957C17.1432 105.07 13.7429 93.7647 13.3668 82.1599L13.3335 79.9999L13.3668 77.8399C13.7402 66.3265 17.0905 55.1063 23.0911 45.2732C29.0917 35.4401 37.5379 27.3296 47.6061 21.7325C57.6744 16.1354 69.0211 13.2426 80.5402 13.3362C92.0593 13.4298 103.358 16.5066 113.333 22.2666ZM103.8 90.0133C88.3396 88.9385 72.936 92.7894 59.8002 101.013C58.3008 101.95 57.2351 103.445 56.8375 105.168C56.44 106.89 56.7431 108.701 57.6802 110.2C58.6173 111.699 60.1116 112.765 61.8344 113.163C63.5573 113.56 65.3675 113.257 66.8668 112.32C77.6143 105.591 90.2173 102.441 102.867 103.32C104.631 103.444 106.373 102.861 107.708 101.701C109.043 100.541 109.863 98.8978 109.987 97.1333C110.111 95.3687 109.528 93.6272 108.368 92.292C107.208 90.9567 105.565 90.137 103.8 90.0133ZM60.0668 59.9999L59.2202 60.0466C57.5998 60.2393 56.1065 61.0196 55.0229 62.2397C53.9394 63.4598 53.3409 65.0349 53.3409 66.6666C53.3409 68.2984 53.9394 69.8734 55.0229 71.0935C56.1065 72.3136 57.5998 73.0939 59.2202 73.2866L60.0002 73.3333L60.8468 73.2866C62.4672 73.0939 63.9605 72.3136 65.0441 71.0935C66.1276 69.8734 66.7261 68.2984 66.7261 66.6666C66.7261 65.0349 66.1276 63.4598 65.0441 62.2397C63.9605 61.0196 62.4672 60.2393 60.8468 60.0466L60.0668 59.9999ZM100.067 59.9999L99.2202 60.0466C97.5998 60.2393 96.1065 61.0196 95.0229 62.2397C93.9394 63.4598 93.3409 65.0349 93.3409 66.6666C93.3409 68.2984 93.9394 69.8734 95.0229 71.0935C96.1065 72.3136 97.5998 73.0939 99.2202 73.2866L100 73.3333L100.847 73.2866C102.467 73.0939 103.961 72.3136 105.044 71.0935C106.128 69.8734 106.726 68.2984 106.726 66.6666C106.726 65.0349 106.128 63.4598 105.044 62.2397C103.961 61.0196 102.467 60.2393 100.847 60.0466L100.067 59.9999Z" fill="white"/>
</svg>
