<svg width="160" height="160" viewBox="0 0 160 160" fill="none" xmlns="http://www.w3.org/2000/svg">
<path d="M113.334 22.2666C123.389 28.0723 131.753 36.4034 137.599 46.4353C143.445 56.4671 146.569 67.8517 146.663 79.4622C146.757 91.0726 143.817 102.506 138.134 112.631C132.451 122.756 124.222 131.221 114.262 137.189C104.302 143.156 92.9559 146.419 81.3475 146.654C69.739 146.889 58.2705 144.088 48.0772 138.528C37.8839 132.969 29.3193 124.843 23.2313 114.957C17.1432 105.07 13.7429 93.7647 13.3668 82.1599L13.3335 79.9999L13.3668 77.8399C13.7402 66.3265 17.0905 55.1063 23.0911 45.2732C29.0917 35.4401 37.5379 27.3296 47.6061 21.7325C57.6744 16.1354 69.0211 13.2426 80.5402 13.3362C92.0593 13.4298 103.358 16.5066 113.334 22.2666ZM100 86.6666H60.0002C58.2321 86.6666 56.5364 87.369 55.2861 88.6192C54.0359 89.8695 53.3335 91.5651 53.3335 93.3333V93.6666C53.3336 100.466 55.9475 107.006 60.6343 111.932C65.3211 116.858 71.7223 119.795 78.5135 120.133L80.0268 120.167C86.8393 120.117 93.3782 117.479 98.3177 112.787C103.257 108.096 106.228 101.701 106.627 94.8999L106.667 93.5266C106.693 92.635 106.539 91.7472 106.216 90.916C105.893 90.0847 105.406 89.3267 104.784 88.6871C104.162 88.0474 103.419 87.539 102.597 87.1919C101.775 86.8448 100.892 86.6662 100 86.6666ZM60.0668 53.3333L59.2202 53.3799C57.5329 53.5806 55.9859 54.418 54.8953 55.7211C53.8047 57.0241 53.2528 58.6944 53.3523 60.3906C53.4519 62.0869 54.1955 63.6811 55.431 64.8476C56.6666 66.0141 58.301 66.6647 60.0002 66.6666L60.8468 66.6199C62.5341 66.4192 64.0811 65.5818 65.1717 64.2788C66.2623 62.9758 66.8142 61.3055 66.7146 59.6092C66.6151 57.913 65.8715 56.3187 64.636 55.1523C63.4004 53.9858 61.766 53.3352 60.0668 53.3333ZM100.067 53.3333L99.2202 53.3799C97.5329 53.5806 95.9859 54.418 94.8953 55.7211C93.8047 57.0241 93.2528 58.6944 93.3523 60.3906C93.4519 62.0869 94.1955 63.6811 95.431 64.8476C96.6666 66.0141 98.301 66.6647 100 66.6666L100.847 66.6199C102.534 66.4192 104.081 65.5818 105.172 64.2788C106.262 62.9758 106.814 61.3055 106.715 59.6092C106.615 57.913 105.872 56.3187 104.636 55.1523C103.4 53.9858 101.766 53.3352 100.067 53.3333Z" fill="white"/>
</svg>
