<svg width="160" height="160" viewBox="0 0 160 160" fill="none" xmlns="http://www.w3.org/2000/svg">
<g clip-path="url(#clip0_33_1638)">
<g filter="url(#filter0_dd_33_1638)">
<path d="M113.334 22.2666C123.389 28.0723 131.753 36.4034 137.599 46.4353C143.445 56.4671 146.569 67.8517 146.663 79.4622C146.757 91.0726 143.817 102.506 138.134 112.631C132.451 122.756 124.222 131.221 114.262 137.189C104.302 143.156 92.9559 146.419 81.3475 146.654C69.739 146.889 58.2705 144.088 48.0772 138.528C37.8839 132.969 29.3193 124.843 23.2313 114.957C17.1432 105.07 13.7429 93.7647 13.3668 82.1599L13.3335 79.9999L13.3668 77.8399C13.7402 66.3265 17.0905 55.1063 23.0911 45.2732C29.0917 35.4401 37.5379 27.3296 47.6061 21.7325C57.6744 16.1354 69.0211 13.2426 80.5402 13.3362C92.0593 13.4298 103.358 16.5066 113.334 22.2666ZM80.0002 87.9999C76.0096 87.9996 72.0591 88.7954 68.3799 90.3408C64.7008 91.8862 61.3669 94.1501 58.5735 96.9999C57.946 97.6219 57.4485 98.3624 57.1097 99.1784C56.771 99.9943 56.5978 100.869 56.6002 101.753C56.6026 102.636 56.7807 103.511 57.1239 104.325C57.4672 105.139 57.9688 105.877 58.5997 106.495C59.2306 107.114 59.9781 107.601 60.7988 107.928C61.6195 108.255 62.4971 108.415 63.3805 108.4C64.2638 108.385 65.1354 108.195 65.9445 107.84C66.7536 107.485 67.4841 106.973 68.0935 106.333C69.6454 104.749 71.4978 103.49 73.5424 102.631C75.5869 101.772 77.7824 101.329 80.0002 101.329C82.2179 101.329 84.4134 101.772 86.458 102.631C88.5025 103.49 90.355 104.749 91.9068 106.333C93.1508 107.566 94.8302 108.26 96.5818 108.265C98.3334 108.27 100.017 107.585 101.267 106.359C102.518 105.133 103.236 103.464 103.266 101.712C103.296 99.9608 102.635 98.2681 101.427 96.9999C98.6334 94.1501 95.2996 91.8862 91.6204 90.3408C87.9412 88.7954 83.9907 87.9996 80.0002 87.9999ZM60.0668 59.9999L59.2202 60.0466C57.5998 60.2393 56.1065 61.0196 55.0229 62.2397C53.9394 63.4598 53.3409 65.0348 53.3409 66.6666C53.3409 68.2983 53.9394 69.8734 55.0229 71.0935C56.1065 72.3136 57.5998 73.0939 59.2202 73.2866L60.0002 73.3333L60.8468 73.2866C62.4672 73.0939 63.9605 72.3136 65.0441 71.0935C66.1276 69.8734 66.7261 68.2983 66.7261 66.6666C66.7261 65.0348 66.1276 63.4598 65.0441 62.2397C63.9605 61.0196 62.4672 60.2393 60.8468 60.0466L60.0668 59.9999ZM100.067 59.9999L99.2202 60.0466C97.5998 60.2393 96.1065 61.0196 95.0229 62.2397C93.9394 63.4598 93.3409 65.0348 93.3409 66.6666C93.3409 68.2983 93.9394 69.8734 95.0229 71.0935C96.1065 72.3136 97.5998 73.0939 99.2202 73.2866L100 73.3333L100.847 73.2866C102.467 73.0939 103.961 72.3136 105.044 71.0935C106.128 69.8734 106.726 68.2983 106.726 66.6666C106.726 65.0348 106.128 63.4598 105.044 62.2397C103.961 61.0196 102.467 60.2393 100.847 60.0466L100.067 59.9999Z" fill="white"/>
</g>
</g>
<defs>
<filter id="filter0_dd_33_1638" x="-2.0665" y="-0.666016" width="164.132" height="172.733" filterUnits="userSpaceOnUse" color-interpolation-filters="sRGB">
<feFlood flood-opacity="0" result="BackgroundImageFix"/>
<feColorMatrix in="SourceAlpha" type="matrix" values="0 0 0 0 0 0 0 0 0 0 0 0 0 0 0 0 0 0 127 0" result="hardAlpha"/>
<feOffset dy="10"/>
<feGaussianBlur stdDeviation="7.7"/>
<feComposite in2="hardAlpha" operator="out"/>
<feColorMatrix type="matrix" values="0 0 0 0 1 0 0 0 0 1 0 0 0 0 1 0 0 0 0.25 0"/>
<feBlend mode="normal" in2="BackgroundImageFix" result="effect1_dropShadow_33_1638"/>
<feColorMatrix in="SourceAlpha" type="matrix" values="0 0 0 0 0 0 0 0 0 0 0 0 0 0 0 0 0 0 127 0" result="hardAlpha"/>
<feOffset/>
<feGaussianBlur stdDeviation="7"/>
<feComposite in2="hardAlpha" operator="out"/>
<feColorMatrix type="matrix" values="0 0 0 0 0.0901961 0 0 0 0 0.2 0 0 0 0 0.45098 0 0 0 0.65 0"/>
<feBlend mode="normal" in2="effect1_dropShadow_33_1638" result="effect2_dropShadow_33_1638"/>
<feBlend mode="normal" in="SourceGraphic" in2="effect2_dropShadow_33_1638" result="shape"/>
</filter>
<clipPath id="clip0_33_1638">
<rect width="160" height="160" fill="white"/>
</clipPath>
</defs>
</svg>
