<svg width="32" height="36" viewBox="0 0 32 36" fill="none" xmlns="http://www.w3.org/2000/svg">
<path d="M30.6097 19.8931L24.8945 23.1277L19.7685 18.0337L24.9354 12.8989L30.6097 16.1102C30.9446 16.2995 31.2232 16.5744 31.4171 16.9067C31.611 17.2391 31.7131 17.6169 31.7131 18.0016C31.7131 18.3863 31.611 18.7642 31.4171 19.0965C31.2232 19.4288 30.9446 19.7037 30.6097 19.8931ZM0.449954 1.84766C0.342237 2.11055 0.28676 2.3919 0.286621 2.676V33.3258C0.286621 33.6423 0.352246 33.9368 0.467454 34.2008L16.7352 18.0322L0.449954 1.84766ZM18.2518 16.5258L23.0031 11.8037L3.53141 0.784537C3.11389 0.545126 2.62796 0.453178 2.15183 0.523495L18.2518 16.5258ZM18.2518 19.5402L2.21016 35.4841C2.64475 35.5366 3.10266 35.4608 3.53141 35.2172L22.9622 24.2214L18.2518 19.5402Z" fill="white"/>
</svg>
